<?xml version="1.0" encoding="utf-8"?>
<!-- Generator: Adobe Illustrator 15.0.0, SVG Export Plug-In . SVG Version: 6.00 Build 0)  -->
<!DOCTYPE svg PUBLIC "-//W3C//DTD SVG 1.1//EN" "http://www.w3.org/Graphics/SVG/1.1/DTD/svg11.dtd">
<svg version="1.1" id="Capa_1" xmlns="http://www.w3.org/2000/svg" xmlns:xlink="http://www.w3.org/1999/xlink" x="0px" y="0px"
	 width="259.25px" height="38.333px" viewBox="0 0 259.25 38.333" enable-background="new 0 0 259.25 38.333" xml:space="preserve">
<g>
	<path fill="#21B6E6" d="M49.884,22.544h8.524L54.149,7.209L49.884,22.544L49.884,22.544z M43.631,34.259l8.213-29.49h4.405
		l8.207,29.49h-2.798l-2.585-9.302h-9.854l-2.583,9.302H43.631L43.631,34.259z M83.291,13.899c-0.664-4.699-2.703-7.05-6.112-7.05
		c-5.063,0-7.595,4.212-7.595,12.64c0,3.606,0.531,6.551,1.595,8.837c0.571,1.202,1.361,2.146,2.379,2.823
		c1.01,0.672,2.118,1.011,3.328,1.011c2.93,0,4.964-1.21,6.094-3.622c0.531-1.143,0.817-2.239,0.858-3.289l2.836,0.446
		c-0.054,0.145-0.173,0.491-0.358,1.049c-0.188,0.558-0.347,1.017-0.479,1.37c-0.127,0.345-0.341,0.823-0.632,1.427
		c-0.292,0.605-0.579,1.104-0.863,1.51c-1.702,2.346-3.954,3.521-6.759,3.521c-2.45,0-4.432-0.584-5.933-1.753
		c-3.302-2.539-4.95-7.097-4.95-13.663c0-2.935,0.49-5.622,1.48-8.061c1.117-2.777,2.779-4.698,4.984-5.76
		c1.197-0.599,2.412-0.898,3.662-0.898c1.243,0,2.305,0.16,3.183,0.48c0.876,0.317,1.613,0.73,2.205,1.235
		c1.289,1.09,2.22,2.272,2.797,3.542c0.579,1.268,0.951,2.246,1.117,2.917l0.12,0.472v0.021L83.291,13.899L83.291,13.899z
		 M88.489,7.183V4.769h19.695v2.414h-8.406v27.076h-2.884V7.183H88.489L88.489,7.183z M111.3,34.259V4.769h2.884v29.49H111.3
		L111.3,34.259z M117.293,4.769h3.011l7.24,24.426l7.27-24.426h3.012l-8.773,29.49h-3.008L117.293,4.769L117.293,4.769z
		 M140.928,34.259V4.769h15.98v2.414h-13.098v10.378h9.398v2.412h-9.398v11.694h13.836v2.592H140.928L140.928,34.259z"/>
	<g>
		<path fill="#21B6E6" d="M185.982,32.159c4.338,0,6.504-3.031,6.504-9.097c0-0.106,0-0.207,0-0.313h-6.498v-2.412h9.381v13.921
			h-2.564v-3.734c-1.42,2.02-2.93,3.269-4.518,3.734c-0.703,0.205-1.654,0.313-2.85,0.313c-1.189,0-2.414-0.3-3.648-0.898
			c-1.242-0.597-2.271-1.388-3.09-2.371c-0.816-0.989-1.5-2.147-2.053-3.476c-0.553-1.335-0.951-2.705-1.191-4.119
			c-0.238-1.417-0.355-2.812-0.355-4.182c0-1.361,0.092-2.636,0.271-3.819c0.391-2.611,1.143-4.785,2.258-6.518
			c1.961-3.17,4.725-4.752,8.299-4.752c1.842,0,3.568,0.552,5.189,1.656c1.895,1.282,3.277,3.542,4.135,6.771l-2.885,0.704
			c-0.016-0.094-0.025-0.214-0.053-0.374c0-0.165-0.066-0.485-0.199-0.949c-0.439-1.688-1.189-3.011-2.26-3.968
			c-1.063-0.949-2.346-1.429-3.854-1.429c-1.502,0-2.791,0.352-3.854,1.051c-1.064,0.704-1.887,1.661-2.473,2.884
			c-1.129,2.345-1.695,5.355-1.695,9.022c0,3.662,0.52,6.485,1.555,8.459C180.904,30.863,183.051,32.159,185.982,32.159
			L185.982,32.159z M198.127,4.77h2.992l7.436,13.881L215.99,4.77H219l-8.99,16.637v12.852h-2.885V21.415L198.127,4.77L198.127,4.77
			z M221.977,34.259V4.77h5.182l6.301,22.65l0.25-0.012l6.293-22.639h5.219v29.489h-2.885V7.512h-0.188l-7.434,26.747h-2.227
			l-7.436-26.747h-0.193v26.747H221.977L221.977,34.259z"/>
		<path fill="#21B6E6" d="M253.785,4.436c0.852,0,1.684,0.219,2.498,0.654c0.811,0.439,1.445,1.064,1.898,1.881
			c0.451,0.814,0.68,1.664,0.68,2.549c0,0.876-0.225,1.715-0.672,2.526c-0.445,0.809-1.072,1.434-1.877,1.881
			c-0.807,0.447-1.648,0.671-2.527,0.671c-0.881,0-1.725-0.224-2.529-0.671c-0.807-0.447-1.434-1.072-1.883-1.881
			c-0.449-0.811-0.672-1.649-0.672-2.526c0-0.885,0.227-1.735,0.682-2.549c0.455-0.817,1.09-1.442,1.902-1.881
			C252.096,4.655,252.932,4.436,253.785,4.436L253.785,4.436z M253.785,5.278c-0.715,0-1.41,0.183-2.086,0.549
			c-0.676,0.365-1.205,0.889-1.586,1.567c-0.381,0.679-0.572,1.389-0.572,2.126c0,0.73,0.188,1.432,0.564,2.103
			c0.375,0.672,0.896,1.195,1.57,1.57s1.375,0.563,2.109,0.563c0.73,0,1.434-0.188,2.105-0.563c0.676-0.375,1.195-0.898,1.568-1.57
			c0.373-0.671,0.559-1.373,0.559-2.103c0-0.737-0.188-1.447-0.566-2.126c-0.379-0.678-0.908-1.202-1.588-1.567
			C255.186,5.46,254.492,5.278,253.785,5.278L253.785,5.278z M251.555,12.329V6.861h1.879c0.643,0,1.105,0.047,1.395,0.148
			c0.287,0.102,0.516,0.278,0.688,0.529c0.168,0.253,0.254,0.52,0.254,0.803c0,0.399-0.143,0.746-0.426,1.044
			c-0.285,0.296-0.666,0.46-1.139,0.498c0.195,0.081,0.352,0.176,0.467,0.29c0.221,0.215,0.49,0.576,0.809,1.085l0.666,1.07h-1.078
			l-0.486-0.863c-0.379-0.678-0.686-1.102-0.918-1.273c-0.162-0.125-0.398-0.188-0.709-0.188h-0.518v2.324H251.555L251.555,12.329z
			 M252.438,9.25h1.072c0.51,0,0.857-0.077,1.045-0.229c0.186-0.153,0.279-0.354,0.279-0.608c0-0.16-0.045-0.304-0.135-0.433
			c-0.09-0.126-0.215-0.224-0.373-0.286c-0.162-0.064-0.453-0.095-0.887-0.095h-1.002V9.25L252.438,9.25z"/>
	</g>
	<path fill-rule="evenodd" clip-rule="evenodd" fill="#C73817" d="M13.336,17.88c-0.09,0.253-0.547,1.49-0.552,1.568l2.363,1.681
		c0.09-0.119,0.788-1.105,0.872-1.224c-0.293-0.23-0.585-0.457-0.88-0.684c-0.577-0.444-1.159-0.888-1.753-1.305L13.336,17.88
		L13.336,17.88z"/>
	<g>
		<path fill-rule="evenodd" clip-rule="evenodd" fill="#C73817" d="M11.917,4.312c-1.134-0.184-4.091,0.444-5.436,0.582
			C6.168,4.588,6.07,2.998,4.265,3.141c-0.462,0.036-0.89,0.29-1.207,0.847C2.364,5.216,3.281,7.426,3.891,8.607
			c1.191,2.264,2.568,3.07,4.713,4.603c1.455,1.041,3.045,2.126,4.38,3.307l-0.933,0.418c-0.105,0.033-2.664,0.434-2.83,0.283
			c0.35-0.888,0.286-0.96,0.863-1.845c-1.049-0.602-1.913-1.261-2.906-1.859c-1.784,2.938-2.808,4.849-1.924,8.578
			c0.453,1.901,1.14,3.229,2,4.269c1.59,1.927,3.767,2.861,6.112,4.598c1.072,0.792,1.131,0.871,1.804,1.52
			c-0.424,0.075-2.652,0.546-3.373,0.522c-0.11,0.467,0.789,1.082,1.195,1.204l2.604-0.405c0.02-0.003,0.046-0.006,0.066-0.006
			c0.626,0.02,0.615,0.529,0.615,0.532c0.005,0.02,0.008,0.046,0.013,0.063l0.064,0.237c-0.171,0.104-0.548,0.068-1.19,0.161
			c-0.357,0.053-0.715,0.104-1.072,0.157c-0.077,0.014-0.146,0.021-0.206,0.023c0.003,0.447,0.617,0.95,1.051,1.306
			c0.72-0.082,0.947-0.132,1.69-0.185c0.256,0.237,0.385,1.789,2.164,1.517c3.927-0.603-0.888-7.396-3.007-8.991
			c-1.852-1.392-4.193-3.035-5.097-3.727c-0.398,0.151-0.801,0.286-1.153,0.237c-1.149-0.154-1.251-0.921-0.988-1.881
			c0.092-0.336,0.245-0.648,0.465-0.928c-0.077-0.102-0.135-0.243-0.164-0.444c-0.053-0.352-0.089-0.385-0.023-0.631l5.037-0.707
			c0.27-0.043,0.327-0.178,0.511,0.026c0.29,0.315,0.056,1.223,0.043,1.266c-0.023-0.003-0.049-0.003-0.077-0.003
			c0.638,0.266,1.854,0.69,2.327,0.924c0.372,0.188,0.817,0.404,1.24,0.642c1.711-5.337-2.348-9.192-7.331-12.805
			C9.624,9.889,8.591,9.317,8.237,8.436l1.568-0.283c0.822-0.136,1.167-0.283,1.567,0.066l-0.742,1.069l2.832,1.702
			c1.154-1.638,1.884-2.787,2.118-4.355c0.206-1.378,0.255-5.637-2.304-4.757c-0.811,0.278-1.299,0.886-1.261,1.748
			C12.036,4.095,12.238,3.96,11.917,4.312L11.917,4.312z M10.817,6.683c-0.5,0.077-1.016,0.143-1.513,0.22
			C8.502,7.028,6.525,7.628,6.853,6.275l2.692-0.378c0.419-0.061,0.888-0.126,1.324-0.192c0.725-0.107,1.069-0.316,1.304,0.081
			C12.162,6.668,11.664,6.551,10.817,6.683L10.817,6.683z M12.539,19.411l-2.65,0.392c-0.222,0.033-0.214,0.016-0.442,0.052
			c-1.527,0.26-1.368-1.384,0.015-1.22c0.495,0,4.144-0.763,4.371-0.513C14.668,19.647,13.671,19.233,12.539,19.411L12.539,19.411z"
			/>
		<path fill="#21B6E6" d="M18.414,0.698c4.976,0,9.483,2.019,12.745,5.28c3.261,3.262,5.278,7.769,5.278,12.746
			c0,4.976-2.018,9.485-5.278,12.744c-2.216,2.217-5.008,3.86-8.131,4.683c-0.031-0.483-0.171-0.986-0.428-1.46
			c-0.066-0.118-0.135-0.233-0.21-0.346c2.853-0.723,5.401-2.206,7.419-4.226c2.917-2.917,4.723-6.945,4.723-11.395
			c0-4.449-1.806-8.48-4.723-11.396c-2.915-2.917-6.945-4.723-11.395-4.723c-0.444,0-1.113,0.04-1.547,0.076
			c-0.087-0.832-0.374-1.365-0.625-1.852C16.954,0.744,17.679,0.698,18.414,0.698L18.414,0.698z M9.74,34.528
			c-1.5-0.825-2.871-1.858-4.073-3.062c-3.26-3.259-5.278-7.768-5.278-12.744c0-3.17,0.819-6.151,2.257-8.738
			c0.449,0.595,0.901,1.065,1.381,1.467c-1.108,2.183-1.731,4.654-1.731,7.271c0,4.45,1.804,8.478,4.721,11.395
			c0.896,0.897,1.897,1.688,2.983,2.354c-0.186,0.464-0.291,0.983-0.291,1.533C9.709,34.183,9.72,34.357,9.74,34.528L9.74,34.528z"
			/>
		<path fill-rule="evenodd" clip-rule="evenodd" fill="#EF7D00" d="M34.765,35.649c-0.212-0.157-0.952-0.141-1.688-0.339
			c-0.735-0.193-0.768-0.45-1.225-0.427c-0.02,0.003-0.054,0.003-0.099,0.006c-0.334-0.641-2.194-6.879-2.194-6.879
			c0.021-0.218,0.064-0.411,0.061-0.572c-0.013-0.49-0.094-0.441-0.472-1.105c0,0-0.71-3.495-2.942-4.87c0,0,0.37-4.463,0.271-5.252
			c-0.012-0.095-0.026-0.194-0.043-0.286l2.473-1.088c0,0,0.508,0.289,0.72,0.25c0.212-0.039,0.283-0.397,0.367-0.605
			c0.084-0.204,0.072-0.947-0.467-0.801c-0.541,0.148-3.168,0.863-3.168,0.863l-0.003-0.026l-0.021-0.194
			c0.914-0.569,1.039-0.998,0.699-1.801c-0.237-0.555-1.003-1.453-1.003-1.453v-0.633c0-0.423-0.263-0.785-0.625-0.949L25.402,9.48
			c0.316,0.058,1.026,0.02,1.133-0.605c0.065-0.015,0.113-0.061,0.113-0.114c0-0.046-0.035-0.083-0.082-0.104
			c0.006-0.031,0.013-0.061,0.023-0.097c0.077-0.006,0.138-0.056,0.138-0.117c0-0.044-0.037-0.083-0.086-0.104
			c0.015-0.067,0.025-0.126,0.023-0.166c-0.007-0.128,0.311-0.059,0.235-0.222c-0.13-0.272-0.219-0.829-0.219-0.838
			c-0.001-1.072-0.87-1.938-1.94-1.938c-0.719,0-1.349,0.393-1.682,0.977c-0.127-0.138-0.308-0.222-0.508-0.222
			c-0.229,0-0.431,0.109-0.558,0.276c-0.095-0.074-0.197-0.135-0.301-0.174c-0.52-0.192-1.213,0.025-1.406,0.544
			c-0.1,0.27-0.256,1.343-0.533,1.995c-0.199,0.467-0.61,0.572-0.61,0.572s0.52,0.395,0.914,0.255
			c0.822-0.29,0.75-0.979,2.227-2.077c0.013-0.01,0.028-0.023,0.039-0.034c0.071,0.024,0.148,0.039,0.227,0.039
			c0.09,0,0.178-0.02,0.26-0.052c0.056,0.699,0.483,1.291,1.083,1.582l-0.213,0.369c-0.043,0.001-0.874,0.444-0.874,0.444
			c-1.925,0.477-4.708,3.041-4.982,3.204c-0.275,0.165-1.041,0.411-0.345,1.567c0,0,0.164,0.996,1.225,3.812
			c-0.034,0.026-0.429,0.977,0.372,1.835c0.266,0.286,0.858-0.007,1.014-0.119c0.16-0.108,0.239-0.648,0-1.013
			c-0.235-0.362-0.477-0.51-0.672-0.987c-0.196-0.48-0.251-3.354-0.658-4.168c0,0,2.484-0.669,2.777-1.255
			c0,0,1.846,4.124,1.851,4.16c-0.457,0.335-1.845,2.125-2.093,2.585c-0.319,0.599-0.447,1.233-0.4,1.802
			c0,0-0.534,0.529-1.414,5.189c0,0-0.378-0.796-1.218-1.46c-0.842-0.668-4.336-2.236-4.348-2.259l0.128-0.076
			c0,0,0.284-1.056-0.901-1.443c0,0-2.121,1.052-2.705,1.411c-0.585,0.359-1.108,1.483-1.108,1.483s0.11,0.168,0.374,0.201
			c0.263,0.036,0.899-0.343,1.634-0.533c0.74-0.188,0.893,0.017,1.279-0.227c0.386-0.243,6.151,4.479,6.151,4.479
			s0.649,0.911,1.228,0.889c0.931-0.037,1.094-0.487,1.094-0.487s2.188-1.904,2.507-4.196l4.364,4.266c0,0-0.333,0.684,0.138,1.868
			c0.469,1.184,2.259,4.758,2.259,4.758l0,0c-0.024,0-0.041,0.004-0.041,0.004l-0.148,0.003c0,0-0.766,0.783,0.074,1.704
			c0,0,2.366,0.121,3.052,0.095c0.686-0.022,1.692-0.746,1.692-0.746S34.975,35.811,34.765,35.649L34.765,35.649z"/>
	</g>
</g>
</svg>
