<?xml version="1.0" encoding="utf-8"?>
<!-- Generator: Adobe Illustrator 15.0.0, SVG Export Plug-In . SVG Version: 6.00 Build 0)  -->
<!DOCTYPE svg PUBLIC "-//W3C//DTD SVG 1.1//EN" "http://www.w3.org/Graphics/SVG/1.1/DTD/svg11.dtd">
<svg version="1.1" id="Capa_1" xmlns="http://www.w3.org/2000/svg" xmlns:xlink="http://www.w3.org/1999/xlink" x="0px" y="0px"
	 width="120.375px" height="99.375px" viewBox="0 0 120.375 99.375" enable-background="new 0 0 120.375 99.375"
	 xml:space="preserve">
<path fill="#21B6E6" d="M5.895,56.691h7.865l-3.929-14.15L5.895,56.691L5.895,56.691z M0.125,67.5l7.579-27.21h4.065L19.34,67.5
	h-2.583l-2.385-8.583H5.28L2.896,67.5H0.125L0.125,67.5z M36.72,48.714c-0.613-4.335-2.495-6.505-5.64-6.505
	c-4.671,0-7.008,3.888-7.008,11.663c0,3.327,0.49,6.045,1.472,8.153c0.526,1.109,1.256,1.98,2.195,2.605
	c0.932,0.62,1.954,0.933,3.071,0.933c2.704,0,4.581-1.116,5.623-3.342c0.49-1.055,0.754-2.066,0.792-3.035l2.617,0.411
	c-0.05,0.134-0.16,0.454-0.331,0.969c-0.173,0.514-0.32,0.938-0.441,1.264c-0.117,0.318-0.314,0.76-0.583,1.316
	c-0.27,0.559-0.534,1.019-0.796,1.394c-1.57,2.165-3.649,3.248-6.237,3.248c-2.261,0-4.089-0.539-5.475-1.617
	c-3.046-2.343-4.566-6.549-4.566-12.606c0-2.709,0.452-5.188,1.365-7.438c1.03-2.563,2.564-4.335,4.599-5.315
	c1.104-0.552,2.226-0.828,3.379-0.828c1.147,0,2.127,0.147,2.938,0.443c0.809,0.292,1.488,0.673,2.035,1.139
	c1.189,1.006,2.048,2.097,2.581,3.269c0.534,1.17,0.877,2.072,1.03,2.689l0.111,0.436v0.021L36.72,48.714L36.72,48.714z
	 M41.516,42.518V40.29h18.173v2.228h-7.756V67.5h-2.662V42.518H41.516L41.516,42.518z M62.564,67.5V40.29h2.661V67.5H62.564
	L62.564,67.5z M68.095,40.29h2.778l6.682,22.538l6.708-22.538h2.778L78.946,67.5H76.17L68.095,40.29L68.095,40.29z M89.902,67.5
	V40.29h14.746v2.228H92.563v9.575h8.671v2.226h-8.671v10.79h12.766V67.5H89.902L89.902,67.5z"/>
<path fill="#21B6E6" d="M30.425,97.116c4.002,0,6.002-2.797,6.002-8.394c0-0.099,0-0.191,0-0.288H30.43v-2.226h8.657v12.845H36.72
	v-3.446c-1.311,1.863-2.704,3.017-4.168,3.446c-0.649,0.189-1.526,0.288-2.631,0.288c-1.097,0-2.226-0.276-3.365-0.828
	c-1.147-0.551-2.097-1.281-2.851-2.188c-0.754-0.913-1.385-1.981-1.895-3.207c-0.51-1.232-0.877-2.496-1.099-3.801
	c-0.22-1.308-0.329-2.595-0.329-3.858c0-1.256,0.085-2.432,0.25-3.524c0.361-2.409,1.055-4.415,2.085-6.015
	c1.809-2.925,4.359-4.385,7.657-4.385c1.699,0,3.292,0.51,4.789,1.528c1.748,1.184,3.024,3.269,3.814,6.248l-2.661,0.649
	c-0.014-0.087-0.024-0.197-0.048-0.345c0-0.151-0.062-0.447-0.184-0.875c-0.407-1.559-1.099-2.778-2.084-3.661
	c-0.982-0.876-2.166-1.318-3.557-1.318c-1.385,0-2.576,0.324-3.556,0.969c-0.982,0.649-1.74,1.533-2.282,2.662
	c-1.041,2.163-1.563,4.941-1.563,8.324c0,3.379,0.478,5.984,1.434,7.807C25.74,95.921,27.72,97.116,30.425,97.116L30.425,97.116z
	 M41.631,71.844h2.76l6.861,12.809l6.863-12.809h2.776l-8.296,15.352v11.858h-2.661V87.202L41.631,71.844L41.631,71.844z
	 M63.638,99.054v-27.21h4.782l5.813,20.899l0.231-0.011l5.807-20.889h4.814v27.21h-2.661v-24.68h-0.173l-6.859,24.68h-2.055
	l-6.861-24.68h-0.177v24.68H63.638L63.638,99.054z"/>
<path fill="#21B6E6" d="M115.743,33.095c0.786,0,1.554,0.202,2.305,0.604c0.748,0.405,1.334,0.981,1.753,1.735
	c0.415,0.751,0.626,1.535,0.626,2.352c0,0.809-0.206,1.584-0.618,2.329c-0.412,0.746-0.991,1.324-1.733,1.735
	c-0.743,0.415-1.521,0.621-2.332,0.621c-0.813,0-1.591-0.206-2.333-0.621c-0.745-0.411-1.323-0.989-1.737-1.735
	c-0.416-0.745-0.621-1.521-0.621-2.329c0-0.816,0.21-1.601,0.63-2.352c0.419-0.754,1.005-1.33,1.756-1.735
	C114.186,33.297,114.956,33.095,115.743,33.095L115.743,33.095z M115.743,33.872c-0.66,0-1.3,0.168-1.924,0.507
	c-0.623,0.337-1.112,0.82-1.464,1.445c-0.352,0.627-0.528,1.282-0.528,1.962c0,0.674,0.173,1.321,0.521,1.94
	c0.346,0.619,0.829,1.104,1.449,1.449c0.622,0.346,1.27,0.519,1.946,0.519c0.674,0,1.323-0.173,1.944-0.519s1.103-0.83,1.445-1.449
	c0.345-0.619,0.516-1.267,0.516-1.94c0-0.68-0.173-1.335-0.523-1.962c-0.349-0.625-0.837-1.108-1.464-1.445
	C117.036,34.04,116.396,33.872,115.743,33.872L115.743,33.872z M113.687,40.376v-5.043h1.732c0.593,0,1.021,0.044,1.286,0.137
	c0.266,0.094,0.477,0.256,0.635,0.488c0.156,0.233,0.235,0.479,0.235,0.74c0,0.369-0.133,0.689-0.394,0.964
	c-0.264,0.273-0.614,0.425-1.05,0.46c0.179,0.074,0.323,0.162,0.43,0.267c0.203,0.199,0.452,0.532,0.746,1.001l0.614,0.986h-0.993
	l-0.449-0.795c-0.351-0.625-0.633-1.017-0.849-1.174c-0.148-0.115-0.367-0.173-0.653-0.173h-0.479v2.142H113.687L113.687,40.376z
	 M114.499,37.537h0.989c0.471,0,0.792-0.071,0.965-0.211c0.172-0.141,0.258-0.326,0.258-0.561c0-0.147-0.04-0.281-0.124-0.399
	c-0.083-0.117-0.198-0.206-0.345-0.264c-0.148-0.06-0.418-0.088-0.817-0.088h-0.926V37.537L114.499,37.537z"/>
<path fill-rule="evenodd" clip-rule="evenodd" fill="#C73817" d="M48.3,22.549c-0.083,0.232-0.505,1.375-0.51,1.447l2.18,1.549
	c0.083-0.109,0.727-1.02,0.804-1.127c-0.27-0.212-0.541-0.423-0.812-0.633c-0.532-0.409-1.069-0.817-1.617-1.205L48.3,22.549
	L48.3,22.549z"/>
<path fill-rule="evenodd" clip-rule="evenodd" fill="#C73817" d="M46.99,3.524c-1.047-0.17-3.775,0.41-5.016,0.537
	c-0.288-0.282-0.379-1.75-2.045-1.618c-0.426,0.034-0.821,0.267-1.114,0.782c-0.64,1.133,0.207,3.172,0.769,4.262
	c1.099,2.089,2.37,2.833,4.349,4.248c1.343,0.96,2.81,1.96,4.042,3.05l-0.86,0.387c-0.097,0.029-2.458,0.401-2.611,0.26
	c0.323-0.818,0.264-0.886,0.797-1.701c-0.968-0.555-1.765-1.164-2.681-1.716c-1.646,2.71-2.591,4.473-1.775,7.916
	c0.417,1.752,1.052,2.98,1.845,3.938c1.467,1.777,3.476,2.639,5.64,4.242c0.989,0.731,1.043,0.804,1.664,1.4
	c-0.391,0.071-2.447,0.504-3.112,0.484c-0.102,0.431,0.729,0.997,1.103,1.109l2.403-0.373c0.019-0.002,0.042-0.006,0.061-0.005
	c0.578,0.019,0.567,0.489,0.567,0.492c0.004,0.017,0.007,0.041,0.012,0.056l0.059,0.219c-0.158,0.098-0.505,0.063-1.099,0.148
	c-0.329,0.048-0.66,0.099-0.989,0.146c-0.071,0.012-0.135,0.02-0.189,0.021c0.003,0.414,0.569,0.877,0.969,1.205
	c0.665-0.075,0.874-0.122,1.56-0.169c0.236,0.217,0.355,1.65,1.997,1.399c3.623-0.558-0.819-6.825-2.775-8.297
	c-1.708-1.285-3.869-2.801-4.704-3.439c-0.367,0.14-0.739,0.264-1.063,0.22c-1.061-0.144-1.155-0.85-0.912-1.736
	c0.085-0.311,0.226-0.598,0.43-0.857c-0.071-0.092-0.125-0.225-0.152-0.41c-0.049-0.323-0.082-0.355-0.021-0.583l4.647-0.652
	c0.249-0.038,0.302-0.162,0.472,0.024c0.267,0.293,0.052,1.13,0.04,1.17c-0.021-0.003-0.045-0.003-0.071-0.005
	c0.589,0.248,1.711,0.637,2.147,0.854c0.343,0.171,0.754,0.372,1.144,0.59c1.58-4.923-2.167-8.481-6.764-11.814
	c-0.879-0.639-1.832-1.167-2.158-1.98l1.447-0.261c0.759-0.125,1.077-0.261,1.446,0.061l-0.685,0.986l2.613,1.57
	c1.065-1.511,1.739-2.571,1.954-4.019c0.19-1.271,0.235-5.201-2.125-4.389c-0.748,0.256-1.199,0.818-1.164,1.613
	C47.1,3.324,47.286,3.2,46.99,3.524L46.99,3.524z M45.975,5.712c-0.461,0.071-0.938,0.132-1.396,0.203
	c-0.741,0.115-2.564,0.669-2.262-0.58l2.483-0.349c0.387-0.056,0.819-0.117,1.222-0.177c0.669-0.099,0.986-0.292,1.203,0.074
	C47.216,5.699,46.757,5.591,45.975,5.712L45.975,5.712z M47.564,17.457l-2.446,0.359c-0.205,0.031-0.197,0.016-0.408,0.05
	c-1.41,0.238-1.262-1.279,0.014-1.127c0.457,0,3.823-0.704,4.033-0.473C49.529,17.675,48.609,17.293,47.564,17.457L47.564,17.457z"
	/>
<path fill="#21B6E6" d="M52.985,0.189c4.591,0,8.75,1.863,11.76,4.872c3.009,3.01,4.87,7.168,4.87,11.761
	c0,4.591-1.861,8.75-4.87,11.759c-2.046,2.045-4.622,3.561-7.503,4.321c-0.029-0.447-0.158-0.91-0.395-1.349
	c-0.061-0.109-0.125-0.215-0.194-0.317c2.633-0.667,4.984-2.038,6.846-3.899c2.691-2.692,4.357-6.409,4.357-10.515
	c0-4.107-1.666-7.826-4.357-10.516c-2.69-2.692-6.409-4.358-10.514-4.358c-0.41,0-1.027,0.037-1.428,0.07
	c-0.081-0.768-0.344-1.259-0.577-1.708C51.638,0.232,52.307,0.189,52.985,0.189L52.985,0.189z M44.981,31.405
	c-1.384-0.762-2.649-1.714-3.758-2.823c-3.008-3.009-4.87-7.167-4.87-11.759c0-2.927,0.755-5.676,2.083-8.064
	c0.415,0.549,0.832,0.983,1.274,1.354c-1.022,2.015-1.598,4.295-1.598,6.71c0,4.106,1.665,7.823,4.356,10.515
	c0.827,0.827,1.751,1.557,2.752,2.171c-0.171,0.429-0.269,0.909-0.269,1.416C44.953,31.088,44.963,31.249,44.981,31.405
	L44.981,31.405z"/>
<path fill-rule="evenodd" clip-rule="evenodd" fill="#EF7D00" d="M68.072,32.441c-0.196-0.147-0.879-0.132-1.559-0.313
	c-0.678-0.18-0.708-0.416-1.13-0.394c-0.019,0.001-0.05,0.001-0.091,0.004c-0.309-0.59-2.024-6.347-2.024-6.347
	c0.02-0.202,0.06-0.379,0.057-0.529c-0.013-0.451-0.087-0.407-0.436-1.02c0,0-0.656-3.226-2.715-4.493c0,0,0.342-4.118,0.25-4.846
	c-0.011-0.089-0.024-0.179-0.04-0.266l2.282-1.004c0,0,0.469,0.267,0.664,0.231c0.196-0.037,0.262-0.367,0.339-0.557
	c0.077-0.189,0.066-0.874-0.431-0.739c-0.5,0.137-2.924,0.795-2.924,0.795l-0.003-0.022l-0.02-0.181
	c0.843-0.523,0.958-0.919,0.645-1.66c-0.218-0.513-0.925-1.341-0.925-1.341V9.176c0-0.39-0.243-0.724-0.577-0.875l-0.003-0.008
	c0.292,0.053,0.947,0.018,1.045-0.558c0.061-0.014,0.104-0.056,0.104-0.105c0-0.042-0.032-0.077-0.076-0.096
	c0.006-0.029,0.012-0.056,0.021-0.089c0.071-0.006,0.127-0.052,0.127-0.108c0-0.041-0.033-0.077-0.079-0.095
	c0.014-0.063,0.022-0.117,0.021-0.153c-0.006-0.119,0.287-0.055,0.217-0.205c-0.12-0.251-0.202-0.765-0.202-0.773
	c-0.001-0.989-0.802-1.789-1.79-1.789c-0.663,0-1.244,0.363-1.552,0.901c-0.117-0.127-0.284-0.205-0.469-0.205
	c-0.211,0-0.397,0.1-0.514,0.255C56.2,5.204,56.106,5.148,56.01,5.111c-0.479-0.178-1.12,0.023-1.297,0.502
	c-0.092,0.249-0.237,1.239-0.492,1.84c-0.184,0.431-0.563,0.528-0.563,0.528s0.479,0.364,0.843,0.235
	c0.759-0.267,0.692-0.903,2.055-1.917c0.012-0.009,0.025-0.021,0.036-0.032c0.065,0.023,0.137,0.037,0.209,0.037
	c0.083,0,0.164-0.019,0.24-0.049c0.052,0.645,0.446,1.191,1,1.459l-0.197,0.34c-0.04,0.001-0.806,0.41-0.806,0.41
	c-1.777,0.44-4.344,2.807-4.597,2.957c-0.253,0.152-0.96,0.379-0.319,1.444c0,0,0.152,0.92,1.13,3.517
	c-0.032,0.026-0.396,0.901,0.343,1.693c0.246,0.266,0.792-0.004,0.936-0.108c0.147-0.102,0.22-0.599,0-0.935
	c-0.217-0.333-0.44-0.47-0.62-0.912c-0.181-0.442-0.232-3.094-0.607-3.845c0,0,2.292-0.618,2.563-1.158c0,0,1.704,3.805,1.708,3.837
	c-0.422,0.311-1.703,1.96-1.932,2.385c-0.294,0.552-0.413,1.14-0.369,1.665c0,0-0.493,0.487-1.305,4.787
	c0,0-0.349-0.733-1.125-1.347c-0.777-0.615-4.001-2.062-4.011-2.083l0.118-0.07c0,0,0.262-0.974-0.832-1.334
	c0,0-1.957,0.973-2.496,1.303c-0.541,0.33-1.023,1.367-1.023,1.367s0.102,0.155,0.345,0.187c0.243,0.034,0.83-0.315,1.508-0.491
	c0.683-0.175,0.824,0.015,1.181-0.209c0.356-0.226,5.676,4.131,5.676,4.131s0.6,0.842,1.133,0.821
	c0.859-0.033,1.009-0.451,1.009-0.451s2.019-1.757,2.313-3.872l4.026,3.938c0,0-0.306,0.629,0.128,1.722
	c0.433,1.094,2.085,4.391,2.085,4.391l0,0c-0.023,0.001-0.038,0.003-0.038,0.004l-0.137,0.003c0,0-0.707,0.721,0.068,1.57
	c0,0,2.184,0.112,2.815,0.09c0.633-0.022,1.562-0.69,1.562-0.69S68.267,32.59,68.072,32.441L68.072,32.441z"/>
</svg>
